<?xml version="1.0" standalone="no"?>
<!DOCTYPE svg PUBLIC "-//W3C//DTD SVG 20010904//EN"
 "http://www.w3.org/TR/2001/REC-SVG-20010904/DTD/svg10.dtd">
<svg version="1.0" xmlns="http://www.w3.org/2000/svg"
 width="1686.000000pt" height="1686.000000pt" viewBox="0 0 1686.000000 1686.000000"
 preserveAspectRatio="xMidYMid meet">
<metadata>
Created by potrace 1.14, written by Peter Selinger 2001-2017
</metadata>
<g transform="translate(0.000000,1686.000000) scale(0.100000,-0.100000)"
fill="#000000" stroke="none">
<path d="M2615 8430 l0 -640 95 0 95 0 0 474 c0 261 3 472 7 470 4 -2 115
-183 248 -402 l242 -397 40 2 c23 1 45 9 52 18 6 9 117 193 245 410 129 217
237 392 239 390 3 -3 5 -221 5 -485 l0 -480 93 0 94 0 1 33 c0 58 1 655 0 955
l-1 292 -89 0 -89 0 -268 -455 c-148 -250 -272 -454 -275 -455 -5 0 -122 187
-165 265 -6 11 -61 103 -123 205 -61 102 -115 192 -120 200 -5 8 -40 66 -78
128 l-68 112 -90 0 -90 0 0 -640z"/>
<path d="M9183 9056 c-3 -5 -6 -292 -7 -638 l-1 -628 95 0 95 0 -1 630 c0 347
-4 633 -8 637 -11 11 -166 10 -173 -1z"/>
<path d="M11268 9054 c-33 -17 -52 -71 -39 -107 21 -53 107 -71 144 -29 64 74
-19 181 -105 136z"/>
<path d="M11609 9055 c-54 -29 -57 -114 -5 -149 33 -21 86 -12 114 19 62 72
-25 175 -109 130z"/>
<path d="M4675 8773 c-59 -8 -151 -35 -207 -60 l-57 -25 30 -59 29 -59 31 16
c93 47 230 69 339 52 145 -23 229 -135 221 -294 -1 -21 -5 -21 -178 -22 -98 0
-202 -3 -231 -6 -192 -20 -292 -104 -294 -249 -4 -180 133 -281 371 -273 142
4 205 28 281 106 l56 56 -1 -83 -1 -83 93 0 93 0 0 343 c0 368 -5 413 -53 482
-79 112 -180 156 -372 160 -66 1 -133 0 -150 -2z m386 -555 c3 -88 -2 -151
-12 -171 -54 -105 -148 -159 -275 -158 -128 1 -220 67 -225 162 -3 59 0 74 28
116 24 37 54 57 113 77 8 2 95 5 193 5 l177 1 1 -32z"/>
<path d="M5950 8764 c-234 -51 -391 -238 -392 -469 -1 -150 52 -278 153 -369
200 -180 566 -181 741 -4 46 47 58 68 39 68 -5 0 -37 16 -71 35 l-62 35 -43
-39 c-47 -43 -72 -59 -119 -73 -92 -27 -207 -13 -283 36 -183 116 -210 399
-53 556 69 69 133 94 240 94 90 -1 148 -23 214 -84 l45 -42 70 39 c39 21 71
41 71 44 0 12 -78 87 -116 113 -100 66 -288 92 -434 60z"/>
<path d="M7130 8773 c-49 -8 -156 -45 -197 -69 -266 -154 -314 -548 -94 -764
162 -158 457 -198 663 -88 52 28 138 106 138 125 0 5 -32 25 -71 46 l-71 38
-36 -37 c-101 -104 -277 -121 -408 -38 -59 37 -93 77 -125 149 -18 41 -22 69
-23 150 -1 93 2 104 32 167 59 121 158 181 297 182 96 0 159 -24 222 -86 l41
-40 71 38 c39 21 71 42 71 47 0 4 -22 30 -49 57 -87 87 -200 128 -352 127 -46
0 -95 -2 -109 -4z"/>
<path d="M8165 8765 c-72 -14 -130 -32 -190 -61 l-34 -16 29 -58 30 -59 52 24
c71 32 179 52 259 49 178 -8 279 -107 279 -272 l0 -50 -182 0 c-234 1 -316
-10 -398 -52 -110 -57 -155 -194 -102 -311 61 -137 241 -199 451 -155 89 19
147 51 199 112 l40 47 -3 -87 -2 -86 94 0 94 0 -3 364 -3 363 -35 69 c-42 82
-102 132 -199 164 -82 28 -269 35 -376 15z m400 -740 c-50 -86 -139 -135 -246
-136 -78 -1 -119 9 -164 39 -90 62 -106 179 -36 256 48 53 79 60 281 66 l185
5 3 -93 c2 -85 0 -98 -23 -137z"/>
<path d="M11336 8764 c-95 -23 -180 -69 -245 -134 -95 -94 -137 -193 -140
-331 -4 -148 41 -264 138 -359 70 -68 136 -105 237 -130 251 -64 518 36 626
236 98 181 68 428 -69 570 -106 109 -216 155 -383 159 -66 2 -127 -2 -164 -11z
m264 -149 c133 -47 213 -186 205 -354 -6 -136 -72 -243 -183 -297 -49 -24 -69
-28 -142 -28 -65 0 -96 5 -132 21 -116 52 -188 165 -196 306 -10 181 85 322
248 366 45 12 146 5 200 -14z"/>
<path d="M11457 8358 c-19 -34 -58 -68 -82 -72 -25 -4 -29 -16 -5 -16 30 0
100 -70 100 -101 1 -19 5 -15 23 21 15 29 36 52 60 65 38 21 47 35 23 35 -20
0 -86 64 -86 84 0 26 -14 19 -33 -16z"/>
<path d="M12494 8765 c-171 -37 -272 -133 -279 -263 -5 -97 36 -171 118 -214
44 -22 164 -55 234 -63 26 -3 56 -8 67 -10 12 -3 34 -7 49 -9 124 -20 187 -79
174 -161 -8 -50 -35 -81 -92 -106 -97 -43 -313 -28 -454 33 -51 22 -56 19 -86
-50 -22 -51 -19 -55 57 -82 218 -76 504 -62 648 32 129 85 154 267 51 361 -50
45 -125 72 -269 98 -201 35 -196 34 -247 63 -115 68 -73 221 70 250 107 22
234 13 342 -25 31 -10 57 -18 59 -17 13 16 52 114 47 118 -8 7 -99 33 -158 46
-61 13 -270 12 -331 -1z"/>
<path d="M13614 8765 c-197 -43 -346 -197 -379 -390 -56 -335 197 -594 570
-584 133 4 281 51 325 104 14 16 10 22 -43 80 l-29 30 -66 -32 c-78 -38 -111
-45 -209 -45 -136 0 -244 52 -308 150 -24 38 -59 144 -53 162 2 7 146 11 408
11 253 1 407 5 411 11 20 32 -17 204 -62 283 -102 182 -334 272 -565 220z
m271 -139 c103 -47 165 -136 181 -262 l6 -41 -327 0 -327 0 5 50 c18 144 125
258 267 280 51 8 147 -5 195 -27z"/>
<path d="M9958 8736 c-190 -83 -296 -236 -300 -435 -4 -214 111 -388 311 -469
81 -33 88 -28 37 29 -100 111 -152 280 -143 462 5 115 9 134 39 215 23 65 101
187 129 205 19 12 26 27 12 27 -5 0 -43 -15 -85 -34z"/>
<path d="M10299 8746 c-175 -36 -300 -228 -300 -459 -1 -192 96 -370 236 -436
172 -81 370 21 449 231 130 344 -91 725 -385 664z"/>
</g>
</svg>
